<svg xmlns="http://www.w3.org/2000/svg" viewBox="0 0 18 18"><defs><style>.cls-1{fill:#fff;}.cls-2{fill:#1e2535;}</style></defs><title>box</title><g id="BG"><rect class="cls-1" width="18" height="18"/></g><g id="Icons"><path class="cls-2" d="M17.44,6.29,15.31,1.73A3,3,0,0,0,12.59,0H5.41A3,3,0,0,0,2.69,1.73L.56,6.29A6,6,0,0,0,0,8.83V15a3,3,0,0,0,3,3H15a3,3,0,0,0,3-3V8.83A6,6,0,0,0,17.44,6.29ZM14,2.37l2.13,4.56a5.44,5.44,0,0,1,.19.57H9.75v-6h2.84A1.51,1.51,0,0,1,14,2.37Zm-9.9,0A1.51,1.51,0,0,1,5.41,1.5H8.25v6H1.73a5.44,5.44,0,0,1,.19-.57ZM15,16.5H3A1.5,1.5,0,0,1,1.5,15V9h15v6A1.5,1.5,0,0,1,15,16.5Z"/></g></svg>