<svg xmlns="http://www.w3.org/2000/svg" viewBox="0 0 18 18"><defs><style>.cls-1{fill:#fff;}.cls-2{fill:#1e2535;}</style></defs><title>creditcard-front</title><g id="BG"><rect class="cls-1" width="18" height="18"/></g><g id="Icons"><path class="cls-2" d="M15.5,3.5a1,1,0,0,1,1,1v9a1,1,0,0,1-1,1H2.5a1,1,0,0,1-1-1v-9a1,1,0,0,1,1-1h13m0-1.5H2.5A2.5,2.5,0,0,0,0,4.5v9A2.5,2.5,0,0,0,2.5,16h13A2.5,2.5,0,0,0,18,13.5v-9A2.5,2.5,0,0,0,15.5,2ZM15,6a1,1,0,0,0-1-1H10.5a1,1,0,0,0,0,2H14A1,1,0,0,0,15,6ZM5.12,12.5a.62.62,0,0,0-.62-.63h-1a.63.63,0,1,0,0,1.25h1A.62.62,0,0,0,5.12,12.5Zm10,0a.62.62,0,0,0-.62-.63h-1a.63.63,0,1,0,0,1.25h1A.62.62,0,0,0,15.12,12.5Zm-3.33,0a.63.63,0,0,0-.62-.63h-1a.63.63,0,1,0,0,1.25h1A.62.62,0,0,0,11.79,12.5Zm-3.33,0a.63.63,0,0,0-.63-.63h-1a.63.63,0,0,0,0,1.25h1A.63.63,0,0,0,8.46,12.5Z"/></g></svg>