<svg xmlns="http://www.w3.org/2000/svg" viewBox="0 0 18 18"><defs><style>.cls-1{fill:#fff;}.cls-2{fill:#1e2535;}</style></defs><title>envelope</title><g id="BG"><rect class="cls-1" width="18" height="18"/></g><g id="Icons"><path class="cls-2" d="M16,2H2A2,2,0,0,0,0,4V14a2,2,0,0,0,2,2H16a2,2,0,0,0,2-2V4A2,2,0,0,0,16,2ZM2,3.5H16a.5.5,0,0,1,.5.5v.13L9.88,9.5a1.39,1.39,0,0,1-1.76,0L1.5,4.13V4A.5.5,0,0,1,2,3.5Zm14,11H2a.5.5,0,0,1-.5-.5V5.67l5.86,4.77a2.61,2.61,0,0,0,3.28,0L16.5,5.67V14A.5.5,0,0,1,16,14.5Z"/></g></svg>