<svg xmlns="http://www.w3.org/2000/svg" viewBox="0 0 18 18"><defs><style>.cls-1{fill:#fff;}.cls-2{fill:#1e2535;}</style></defs><title>exchange</title><g id="BG"><rect class="cls-1" width="18" height="18"/></g><g id="Icons"><path class="cls-2" d="M17.8,5.51,14.55,9a.75.75,0,0,1-.55.24.76.76,0,0,1-.51-.2.76.76,0,0,1,0-1.06l2.08-2.24H1.12V4.25H15.53L13.45,2a.75.75,0,1,1,1.1-1l3.25,3.5A.74.74,0,0,1,17.8,5.51ZM4.55,10a.75.75,0,1,0-1.1-1L.2,12.49a.74.74,0,0,0,0,1L3.45,17a.75.75,0,0,0,.55.24.76.76,0,0,0,.51-.2.76.76,0,0,0,0-1.06L2.47,13.75H16.88v-1.5H2.47Z"/></g></svg>