<svg xmlns="http://www.w3.org/2000/svg" viewBox="0 0 18 18"><defs><style>.cls-1{fill:#fff;}.cls-2{fill:#1e2535;}</style></defs><title>exclamation-triangle</title><g id="BG"><rect class="cls-1" width="18" height="18"/></g><g id="Icons"><path class="cls-2" d="M10.25,13.25A1.25,1.25,0,1,1,9,12,1.25,1.25,0,0,1,10.25,13.25ZM8.7,11h.6a.5.5,0,0,0,.5-.44l.33-2.95a1,1,0,0,0-1-1.11H8.87a1,1,0,0,0-1,1.11l.33,3A.5.5,0,0,0,8.7,11ZM16,16.86H2.05a2.05,2.05,0,0,1-1.76-3.1l7-11.65a2,2,0,0,1,3.42,0l7,11.65A2.05,2.05,0,0,1,16,16.86Zm.47-2.32-7-11.66a.49.49,0,0,0-.84,0l-7,11.66a.54.54,0,0,0,0,.54.52.52,0,0,0,.48.28H16a.52.52,0,0,0,.48-.28A.54.54,0,0,0,16.42,14.54Z"/></g></svg>