<svg xmlns="http://www.w3.org/2000/svg" viewBox="0 0 18 18"><defs><style>.cls-1{fill:#fff;}.cls-2{fill:#1e2535;}</style></defs><title>export</title><g id="BG"><rect class="cls-1" width="18" height="18"/></g><g id="Icons"><path class="cls-2" d="M13.5,16a.5.5,0,0,1-.5.5H2a.5.5,0,0,1-.5-.5V6.75H5A1.76,1.76,0,0,0,6.75,5V1.5H13a.5.5,0,0,1,.5.5V3H15V2a2,2,0,0,0-2-2H4.83A2,2,0,0,0,3.41.59L.59,3.41A2,2,0,0,0,0,4.83V16a2,2,0,0,0,2,2H13a2,2,0,0,0,2-2V15H13.5ZM1.5,4.83a.49.49,0,0,1,.15-.36L4.47,1.65a.49.49,0,0,1,.36-.15h.42V5A.25.25,0,0,1,5,5.25H1.5ZM17.8,9.51,14.55,13a.75.75,0,0,1-.55.24.76.76,0,0,1-.51-.2.76.76,0,0,1,0-1.06l2.08-2.24h-6V8.25h6L13.45,6a.75.75,0,0,1,1.1-1l3.25,3.5A.74.74,0,0,1,17.8,9.51Z"/></g></svg>