<svg xmlns="http://www.w3.org/2000/svg" viewBox="0 0 18 18"><defs><style>.cls-1{fill:#fff;}.cls-2{fill:#1e2535;}</style></defs><title>external-link</title><g id="BG"><rect class="cls-1" width="18" height="18"/></g><g id="Icons"><path class="cls-2" d="M13.5,11,15,9.5v6A2.5,2.5,0,0,1,12.5,18H2.5A2.5,2.5,0,0,1,0,15.5V5.5A2.5,2.5,0,0,1,2.5,3h6L7,4.5H2.5a1,1,0,0,0-1,1v10a1,1,0,0,0,1,1h10a1,1,0,0,0,1-1ZM17,0H11.25a.76.76,0,0,0-.75.75.76.76,0,0,0,.75.75h4.19L7,10,8,11,16.5,2.56V6.75a.75.75,0,0,0,1.5,0V1A1,1,0,0,0,17,0Z"/></g></svg>