<svg xmlns="http://www.w3.org/2000/svg" viewBox="0 0 18 18"><defs><style>.cls-1{fill:#fff;}.cls-2{fill:#1e2535;}</style></defs><title>eye</title><g id="BG"><rect class="cls-1" width="18" height="18"/></g><g id="Icons"><path class="cls-2" d="M9,2.5c-6,0-9,5-9,6.5s3,6.5,9,6.5,9-5,9-6.5S15,2.5,9,2.5ZM10,5A2,2,0,1,1,8,7,2,2,0,0,1,10,5ZM9,14A7.88,7.88,0,0,1,1.5,9,7.4,7.4,0,0,1,5.17,4.93,4.83,4.83,0,0,0,4.5,7.5,4.2,4.2,0,0,0,9,12q4.5,0,4.5-4.5a4.83,4.83,0,0,0-.67-2.57A7.4,7.4,0,0,1,16.5,9,7.88,7.88,0,0,1,9,14Z"/></g></svg>