<svg xmlns="http://www.w3.org/2000/svg" viewBox="0 0 18 18"><defs><style>.cls-1{fill:#fff;}.cls-2{fill:#1e2535;}</style></defs><title>facecook</title><g id="BG"><rect class="cls-1" width="18" height="18"/></g><g id="Icons"><path class="cls-2" d="M15.23,2H2.77A.78.78,0,0,0,2,2.77V15.23a.78.78,0,0,0,.77.77H9.48V10.59H7.66V8.47H9.48V6.91a2.55,2.55,0,0,1,2.72-2.8,14.84,14.84,0,0,1,1.63.09V6.09H12.72c-.88,0-1.05.41-1.05,1V8.46h2.1l-.28,2.12H11.66V16h3.57a.78.78,0,0,0,.77-.77h0V2.77A.78.78,0,0,0,15.23,2Z"/></g></svg>