<svg xmlns="http://www.w3.org/2000/svg" viewBox="0 0 18 18"><defs><style>.cls-1{fill:#fff;}.cls-2{fill:#1e2535;}</style></defs><title>info-circle</title><g id="BG"><rect class="cls-1" width="18" height="18"/></g><g id="Icons"><path class="cls-2" d="M9,0a9,9,0,1,0,9,9A9,9,0,0,0,9,0ZM9,16.5A7.5,7.5,0,1,1,16.5,9,7.5,7.5,0,0,1,9,16.5Z"/><polygon class="cls-2" points="10 9.5 10 8 8 8 6.5 8 6.5 9.5 8 9.5 8 11.5 6.5 11.5 6.5 13 8 13 10 13 11.5 13 11.5 11.5 10 11.5 10 9.5"/><circle class="cls-2" cx="9" cy="5.5" r="1.5"/></g></svg>