<svg xmlns="http://www.w3.org/2000/svg" viewBox="0 0 18 18"><defs><style>.cls-1{fill:#fff;}.cls-2{fill:#1e2535;}</style></defs><title>lightbulb</title><g id="BG"><rect class="cls-1" width="18" height="18"/></g><g id="Icons"><path class="cls-2" d="M4.75,6.5h1.5A2.25,2.25,0,0,1,8.5,4.25V2.75A3.75,3.75,0,0,0,4.75,6.5Z"/><path class="cls-2" d="M10,0H8A6,6,0,0,0,2,6v.26a8,8,0,0,0,1.69,4.91l.94,1.22a5,5,0,0,1,1,2.51l.14,1.32a2,2,0,0,0,2,1.78h2.42a2,2,0,0,0,2-1.78l.14-1.32a5,5,0,0,1,1-2.51l.94-1.22A8,8,0,0,0,16,6.26V6A6,6,0,0,0,10,0Zm.71,16.06a.5.5,0,0,1-.5.44H7.79a.5.5,0,0,1-.5-.44l-.14-1.32A6,6,0,0,0,7,14h4a6,6,0,0,0-.14.74Zm3.79-9.8a6.58,6.58,0,0,1-1.37,4l-1,1.21a6.61,6.61,0,0,0-.64,1H6.46a6.61,6.61,0,0,0-.64-1l-1-1.21a6.58,6.58,0,0,1-1.37-4V6A4.51,4.51,0,0,1,8,1.5h2A4.51,4.51,0,0,1,14.5,6Z"/></g></svg>