<svg xmlns="http://www.w3.org/2000/svg" viewBox="0 0 18 18"><defs><style>.cls-1{fill:#fff;}.cls-2{fill:#1e2535;}</style></defs><title>money-bill</title><g id="BG"><rect class="cls-1" width="18" height="18"/></g><g id="Icons"><path class="cls-2" d="M11.5,9c0,2-1,3-2.5,3S6.5,11,6.5,9,7.5,6,9,6,11.5,7,11.5,9ZM18,4V14a1.5,1.5,0,0,1-1.5,1.5H1.5A1.5,1.5,0,0,1,0,14V4A1.5,1.5,0,0,1,1.5,2.5h15A1.5,1.5,0,0,1,18,4ZM3.24,14.2H14.76a2,2,0,0,1,1.94-1.94V5.74A2,2,0,0,1,14.76,3.8H3.24A2,2,0,0,1,1.3,5.74v6.52A2,2,0,0,1,3.24,14.2Z"/></g></svg>