<svg xmlns="http://www.w3.org/2000/svg" viewBox="0 0 18 18"><defs><style>.cls-1{fill:#fff;}.cls-2{fill:#1e2535;}</style></defs><title>move</title><g id="BG"><rect class="cls-1" width="18" height="18"/></g><g id="Icons"><path class="cls-2" d="M5.5,6.75h7a.74.74,0,0,0,.69-.46A.75.75,0,0,0,13,5.47L9.53,2A.75.75,0,0,0,8.47,2L5,5.47a.75.75,0,0,0-.16.82A.74.74,0,0,0,5.5,6.75Z"/><path class="cls-2" d="M12.5,11.25h-7a.74.74,0,0,0-.69.46.75.75,0,0,0,.16.82L8.47,16a.75.75,0,0,0,1.06,0l3.5-3.5a.75.75,0,0,0,.16-.82A.74.74,0,0,0,12.5,11.25Z"/></g></svg>