<svg xmlns="http://www.w3.org/2000/svg" viewBox="0 0 18 18"><defs><style>.cls-1{fill:#fff;}.cls-2{fill:#1e2535;}</style></defs><title>nav</title><g id="BG"><rect class="cls-1" width="18" height="18"/></g><g id="Icons"><path class="cls-2" d="M16,10H2a.5.5,0,0,1-.5-.5v-1A.5.5,0,0,1,2,8H16a.5.5,0,0,1,.5.5v1A.5.5,0,0,1,16,10Zm.5-6.5v-1A.5.5,0,0,0,16,2H2a.5.5,0,0,0-.5.5v1A.5.5,0,0,0,2,4H16A.5.5,0,0,0,16.5,3.5Zm0,12v-1A.5.5,0,0,0,16,14H2a.5.5,0,0,0-.5.5v1A.5.5,0,0,0,2,16H16A.5.5,0,0,0,16.5,15.5Z"/></g></svg>