<svg xmlns="http://www.w3.org/2000/svg" viewBox="0 0 18 18"><defs><style>.cls-1{fill:#fff;}.cls-2{fill:#1e2535;}</style></defs><title>palette</title><g id="BG"><rect class="cls-1" width="18" height="18"/></g><g id="Icons"><path class="cls-2" d="M9,0A9,9,0,0,0,9,18c2,0,3-.65,3-2.5A3.42,3.42,0,0,1,15.5,12c2,0,2.5-1.5,2.5-3.5C18,4,14,0,9,0Zm6.5,10.5a4.89,4.89,0,0,0-5,5c0,.69,0,1-1.5,1a7.5,7.5,0,0,1,0-15c4.07,0,7.5,3.21,7.5,7C16.5,10.5,16,10.5,15.5,10.5ZM10,4.5A1.5,1.5,0,1,1,8.5,3,1.5,1.5,0,0,1,10,4.5Zm4,2A1.5,1.5,0,1,1,12.5,5,1.5,1.5,0,0,1,14,6.5ZM5,9A1.5,1.5,0,1,1,6.5,7.5,1.5,1.5,0,0,1,5,9Zm2.5,3A1.5,1.5,0,1,1,6,10.5,1.5,1.5,0,0,1,7.5,12Z"/></g></svg>