<svg xmlns="http://www.w3.org/2000/svg" viewBox="0 0 18 18"><defs><style>.cls-1{fill:#fff;}.cls-2{fill:#1e2535;}</style></defs><title>print</title><g id="BG"><rect class="cls-1" width="18" height="18"/></g><g id="Icons"><path class="cls-2" d="M5.5,10.25A1.25,1.25,0,1,1,4.25,9,1.25,1.25,0,0,1,5.5,10.25ZM18,9.5v3a2,2,0,0,1-2,2H14.5v2A1.5,1.5,0,0,1,13,18H5a1.5,1.5,0,0,1-1.5-1.5v-2H2a2,2,0,0,1-2-2v-3A3.5,3.5,0,0,1,3.5,6V1.5A1.5,1.5,0,0,1,5,0h6.5l3,3V6A3.5,3.5,0,0,1,18,9.5ZM5,6h8V3.62L10.88,1.5H5Zm8,8.5H5v2h8Zm3.5-5a2,2,0,0,0-2-2H3.5a2,2,0,0,0-2,2v3A.5.5,0,0,0,2,13H16a.5.5,0,0,0,.5-.5Z"/></g></svg>