<svg xmlns="http://www.w3.org/2000/svg" viewBox="0 0 18 18"><defs><style>.cls-1{fill:#fff;}.cls-2{fill:#1e2535;}</style></defs><title>shopping-cart</title><g id="BG"><rect class="cls-1" width="18" height="18"/></g><g id="Icons"><path class="cls-2" d="M14.77,12.25H5.83a1.76,1.76,0,0,1-1.72-1.42L2.38,1.5H0V0H3.62l.57,3.25H18l-1.52,7.59A1.74,1.74,0,0,1,14.77,12.25ZM4.48,4.75l1.1,5.8a.26.26,0,0,0,.25.2h8.94a.25.25,0,0,0,.24-.2l1.16-5.8ZM6.25,14.8a.95.95,0,1,1-1,.95,1,1,0,0,1,1-.95m0-1.3A2.25,2.25,0,1,0,8.5,15.75,2.25,2.25,0,0,0,6.25,13.5Zm8,1.3a.95.95,0,1,1-.95.95,1,1,0,0,1,.95-.95m0-1.3a2.25,2.25,0,1,0,2.25,2.25,2.25,2.25,0,0,0-2.25-2.25Z"/></g></svg>