<svg xmlns="http://www.w3.org/2000/svg" viewBox="0 0 18 18"><defs><style>.cls-1{fill:#fff;}.cls-2{fill:#1e2535;}</style></defs><title>sort</title><g id="BG"><rect class="cls-1" width="18" height="18"/></g><g id="Icons"><path class="cls-2" d="M12,7H6a.74.74,0,0,1-.69-.46.76.76,0,0,1,.16-.82l3-3a.75.75,0,0,1,1.06,0l3,3a.76.76,0,0,1,.16.82A.74.74,0,0,1,12,7ZM9,15.51a.74.74,0,0,1-.53-.22l-3-3a.76.76,0,0,1-.16-.82A.74.74,0,0,1,6,11h6a.74.74,0,0,1,.69.46.76.76,0,0,1-.16.82l-3,3A.74.74,0,0,1,9,15.51Z"/></g></svg>