<svg xmlns="http://www.w3.org/2000/svg" viewBox="0 0 18 18"><defs><style>.cls-1{fill:#fff;}.cls-2{fill:#1e2535;}</style></defs><title>spinner</title><g id="BG"><rect class="cls-1" width="18" height="18"/></g><g id="Icons"><path class="cls-2" d="M10.5,1.5A1.5,1.5,0,1,1,9,0,1.5,1.5,0,0,1,10.5,1.5ZM9,15a1.5,1.5,0,1,0,1.5,1.5A1.5,1.5,0,0,0,9,15ZM3,9a1.5,1.5,0,1,0-1.5,1.5A1.5,1.5,0,0,0,3,9ZM16.5,7.5A1.5,1.5,0,1,0,18,9,1.5,1.5,0,0,0,16.5,7.5ZM2.64,2.64a1.49,1.49,0,0,0,0,2.12A1.5,1.5,0,1,0,4.76,2.64,1.49,1.49,0,0,0,2.64,2.64Zm10.6,10.6a1.51,1.51,0,0,0,0,2.12,1.5,1.5,0,1,0,2.12-2.12A1.51,1.51,0,0,0,13.24,13.24Zm-10.6,0a1.5,1.5,0,1,0,2.12,2.12,1.5,1.5,0,0,0-2.12-2.12Z"/></g></svg>