<svg xmlns="http://www.w3.org/2000/svg" viewBox="0 0 18 18"><defs><style>.cls-1{fill:#fff;}.cls-2{fill:#1e2535;}</style></defs><title>sync-alt</title><g id="BG"><rect class="cls-1" width="18" height="18"/></g><g id="Icons"><path class="cls-2" d="M16.48,9.5H18A8.39,8.39,0,0,1,9.41,18a9.47,9.47,0,0,1-7.3-3.31L.87,16.05a.51.51,0,0,1-.37.17.5.5,0,0,1-.5-.51V11.5A.5.5,0,0,1,.5,11H4.36a.5.5,0,0,1,.37.84L3.15,13.56a8,8,0,0,0,6.26,2.88A6.82,6.82,0,0,0,16.48,9.5ZM17.13,2,15.89,3.31A9.47,9.47,0,0,0,8.59,0,8.39,8.39,0,0,0,0,8.5H1.52A6.82,6.82,0,0,1,8.59,1.56a8,8,0,0,1,6.26,2.88L13.27,6.16a.5.5,0,0,0,.37.84H17.5a.5.5,0,0,0,.5-.5V2.29A.5.5,0,0,0,17.13,2Z"/></g></svg>