<svg xmlns="http://www.w3.org/2000/svg" viewBox="0 0 18 18"><defs><style>.cls-1{fill:#fff;}.cls-2{fill:#1e2535;}</style></defs><title>truck</title><g id="BG"><rect class="cls-1" width="18" height="18"/></g><g id="Icons"><path class="cls-2" d="M17.56,7.06,13.94,3.44A1.5,1.5,0,0,0,12.88,3H11V2.5A1.5,1.5,0,0,0,9.5,1h-8A1.5,1.5,0,0,0,0,2.5v10A1.5,1.5,0,0,0,1.5,14h.29a4,4,0,0,0,0,.5,3,3,0,0,0,6,0,4,4,0,0,0,0-.5h3.08a4,4,0,0,0,0,.5,3,3,0,0,0,6,0A3,3,0,0,0,16.7,14,1.5,1.5,0,0,0,18,12.5V8.12A1.5,1.5,0,0,0,17.56,7.06ZM4.75,16.4a1.9,1.9,0,1,1,1.9-1.9A1.9,1.9,0,0,1,4.75,16.4ZM9.5,3v9.5H7a3,3,0,0,0-4.46,0h-1V2.5h8ZM11,4.5h1.88l3,3H11Zm2.75,11.9a1.9,1.9,0,1,1,1.9-1.9A1.9,1.9,0,0,1,13.75,16.4Zm0-4.9a3,3,0,0,0-2.23,1H11v-4h5.5v4H16A3,3,0,0,0,13.75,11.5Z"/></g></svg>