<svg xmlns="http://www.w3.org/2000/svg" viewBox="0 0 18 18"><defs><style>.cls-1{fill:#fff;}.cls-2{fill:#1e2535;}</style></defs><title>underline</title><g id="BG"><rect class="cls-1" width="18" height="18"/></g><g id="Icons"><path class="cls-2" d="M4.25,4h.4V8.5A3.86,3.86,0,0,0,8.5,12.35h1A3.86,3.86,0,0,0,13.35,8.5V4h.4a.75.75,0,0,0,0-1.5h-3a.75.75,0,0,0,0,1.5h.9V8.5A2.15,2.15,0,0,1,9.5,10.65h-1A2.15,2.15,0,0,1,6.35,8.5V4h.9a.75.75,0,0,0,0-1.5h-3a.75.75,0,0,0,0,1.5Z"/><path class="cls-2" d="M14.75,14H3.25a.75.75,0,0,0,0,1.5h11.5a.75.75,0,0,0,0-1.5Z"/></g></svg>