<svg xmlns="http://www.w3.org/2000/svg" viewBox="0 0 18 18"><defs><style>.cls-1{fill:#fff;}.cls-2{fill:#1e2535;}</style></defs><title>upload</title><g id="BG"><rect class="cls-1" width="18" height="18"/></g><g id="Icons"><path class="cls-2" d="M3.44,5.77A.76.76,0,0,1,3.5,4.71l5-4.5a.74.74,0,0,1,1,0l5,4.5a.76.76,0,0,1,.06,1.06A.77.77,0,0,1,14,6a.74.74,0,0,1-.5-.2L9.75,2.45V13.5H8.25v-11L4.5,5.82A.75.75,0,0,1,3.44,5.77ZM16.5,13v3a.5.5,0,0,1-.5.5H2a.5.5,0,0,1-.5-.5V13H0v3a2,2,0,0,0,2,2H16a2,2,0,0,0,2-2V13Z"/></g></svg>