<svg xmlns="http://www.w3.org/2000/svg" viewBox="0 0 18 18"><defs><style>.cls-1{fill:#fff;}.cls-2{fill:#1e2535;}</style></defs><title>usd-circle</title><g id="BG"><rect class="cls-1" width="18" height="18"/></g><g id="Icons"><path class="cls-2" d="M6.65,7.5a.85.85,0,0,0,.85.85h3a2.15,2.15,0,0,1,0,4.3H9.75V14.5H8.25V12.65H7A1.65,1.65,0,0,1,5.35,11v-.5h1.3V11a.35.35,0,0,0,.35.35h3.5a.85.85,0,0,0,0-1.7h-3a2.15,2.15,0,0,1,0-4.3h.75V3.5h1.5V5.35h.75A2.15,2.15,0,0,1,12.65,7.5h-1.3a.85.85,0,0,0-.85-.85h-3A.85.85,0,0,0,6.65,7.5ZM18,9A9,9,0,1,1,9,0,9,9,0,0,1,18,9ZM16.5,9A7.5,7.5,0,1,0,9,16.5,7.5,7.5,0,0,0,16.5,9Z"/></g></svg>