<svg xmlns="http://www.w3.org/2000/svg" viewBox="0 0 18 18"><defs><style>.cls-1{fill:#fff;}.cls-2{fill:#1e2535;}</style></defs><title>user</title><g id="BG"><rect class="cls-1" width="18" height="18"/></g><g id="Icons"><path class="cls-2" d="M14,13a2.47,2.47,0,0,1,1.84.8,2.51,2.51,0,0,1,.65,1.89c0,.47-.12.81-.52.81H2c-.3,0-.52-.23-.52-.81a2.71,2.71,0,0,1,.65-1.89A2.47,2.47,0,0,1,4,13H14m0-1.5H4a4,4,0,0,0-4,4.31C0,17.58.78,18,2,18H16c1.45,0,2-.85,2-2.19a4,4,0,0,0-4-4.31Zm-3.3-10a1,1,0,0,1,.74.33,1,1,0,0,1,.25.78l-.44,4a1,1,0,0,1-1,.89H7.74a1,1,0,0,1-1-.89l-.44-4a1,1,0,0,1,.25-.78,1,1,0,0,1,.74-.33h3.42m0-1.5H7.29A2.5,2.5,0,0,0,4.81,2.78l.44,4A2.5,2.5,0,0,0,7.74,9h2.52a2.5,2.5,0,0,0,2.49-2.22l.44-4A2.5,2.5,0,0,0,10.71,0Z"/></g></svg>