<svg xmlns="http://www.w3.org/2000/svg" viewBox="0 0 18 18"><defs><style>.cls-1{fill:#fff;}.cls-2{fill:#1e2535;}</style></defs><title>youtube</title><g id="BG"><rect class="cls-1" width="18" height="18"/></g><g id="Icons"><path class="cls-2" d="M17.62,4.67A2.21,2.21,0,0,0,16,3.08,53.19,53.19,0,0,0,9,2.7a53.19,53.19,0,0,0-7,.38A2.21,2.21,0,0,0,.38,4.67,23.15,23.15,0,0,0,0,9a23.15,23.15,0,0,0,.38,4.33A2.21,2.21,0,0,0,2,14.92a53.19,53.19,0,0,0,7,.38,53.19,53.19,0,0,0,7-.38,2.21,2.21,0,0,0,1.59-1.59A23.15,23.15,0,0,0,18,9,23.15,23.15,0,0,0,17.62,4.67ZM7.2,11.7V6.3L11.88,9Z"/></g></svg>